<svg width="83" height="30" viewBox="0 0 83 30" fill="none" xmlns="http://www.w3.org/2000/svg">
<g clip-path="url(#clip0_1864_19970)">
<path d="M0 0.730713H6.05219L5.94885 11.2662C9.4144 8.46871 15.1273 9.70148 17.7808 13.048C21.4478 17.6733 20.5846 25.5543 15.3038 28.5992C12.476 30.2297 8.5929 30.6837 5.94885 28.4771C5.88205 28.5637 6.35073 29.7286 5.89562 29.7286H0.156576C0 29.7286 0 29.572 0 29.572V0.730713ZM9.05219 14.3174C6.1785 14.7098 4.84447 18.6618 5.3904 21.1587C6.02923 24.0867 8.61482 26.6837 11.6545 24.8466C15.8017 22.3393 14.3236 13.5981 9.05324 14.3184L9.05219 14.3174Z" fill="#953B51"/>
<path d="M28.4833 21.2798C28.9426 25.0147 33.4186 26.1378 36.1952 23.9312C36.4854 23.7005 37.0125 22.9771 37.143 22.8946C37.2318 22.8393 37.2954 22.833 37.3967 22.8414C37.8915 22.8831 41.3132 26.1159 41.1963 26.5261C41.167 26.6305 40.1806 27.6097 40.0146 27.7495C37.3403 30.0053 33.1535 30.3831 29.8361 29.6806C20.0345 27.6034 19.856 12.4886 29.357 10.1055C36.0762 8.41968 43.0386 12.0522 42.4864 21.2808H28.4833V21.2798ZM36.2036 17.4197C35.8539 15.785 34.7015 14.831 33.0261 14.7036C30.6963 14.5262 29.3977 15.2005 28.5877 17.4197H36.2046H36.2036Z" fill="#953B51"/>
<path d="M54.7776 0L48.5146 29.572L48.358 29.7286H42.4624L48.6221 0H54.7776Z" fill="#953B51"/>
<path d="M57.6952 29.7286H51.644L57.9081 0H63.9071L57.6952 29.7286Z" fill="#953B51"/>
<path d="M68.8382 21.2798C69.2975 25.0147 73.7735 26.1378 76.5501 23.9312C76.8403 23.7005 77.3674 22.9771 77.4979 22.8946C77.5866 22.8393 77.6503 22.833 77.7515 22.8414C78.2463 22.8831 81.668 26.1159 81.5511 26.5261C81.5219 26.6305 80.5355 27.6097 80.3695 27.7495C77.6952 30.0053 73.5083 30.3831 70.191 29.6806C60.3893 27.6034 60.2108 12.4886 69.7119 10.1055C76.4311 8.41968 83.3935 12.0522 82.8413 21.2808H68.8382V21.2798ZM76.5584 17.4197C76.2087 15.785 75.0563 14.831 73.381 14.7036C71.0511 14.5262 69.7526 15.2005 68.9426 17.4197H76.5595H76.5584Z" fill="#953B51"/>
</g>
<defs>
<clipPath id="clip0_1864_19970">
<rect width="82.8716" height="30" fill="white"/>
</clipPath>
</defs>
</svg>
